# xmcd
# 
# Track frame offsets:
#     150
#     17437
#     44900
#     60262
#     73275
#     87412
#     102187
#     113837
#     124212
#     139737
#     158362
#     178400
#     193837
#     206787
#     226712
#     243612
#     268675
#     286437
#     303712
# 
# Disc length: 4260
# 
# Revision: 1
# Processed by: cddbd v1.5.2PL0 Copyright (c) Steve Scherf et al.
# Submitted via: fre:ac v1.0.31
# 
DISCID=1e10a213
DTITLE=Bad Version - 最受歡迎的西洋流行名曲
DYEAR=0
DGENRE=Pop
TTITLE0=Nothing's Gonna Change My Love For You
TTITLE1=I'm Not in Love
TTITLE2=The Tides Is High
TTITLE3=By The Time I Get To Phoenix
TTITLE4=Open Arms
TTITLE5=It Never Rains in Southern California
TTITLE6=Yellow River
TTITLE7=Speak Softly Love
TTITLE8=We're All Alone
TTITLE9=Lady in Red
TTITLE10=Casablanca
TTITLE11=Morning Has Broken
TTITLE12=You Don't Have To Say You Love Me
TTITLE13=Cherish
TTITLE14=Two Out Of Three Ain't Bad
TTITLE15=Total Eclipse Of THw Heart
TTITLE16=Lady
TTITLE17=Almost Paradise
TTITLE18=Lovin' You
EXTD=
EXTT0=
EXTT1=
EXTT2=
EXTT3=
EXTT4=
EXTT5=
EXTT6=
EXTT7=
EXTT8=
EXTT9=
EXTT10=
EXTT11=
EXTT12=
EXTT13=
EXTT14=
EXTT15=
EXTT16=
EXTT17=
EXTT18=
PLAYORDER=
